<svg id="visual" viewBox="0 0 900 600" width="900" height="600" xmlns="http://www.w3.org/2000/svg" xmlns:xlink="http://www.w3.org/1999/xlink" version="1.1"><rect x="0" y="0" width="900" height="600" fill="#001220"></rect><defs><linearGradient id="grad1_0" x1="33.3%" y1="0%" x2="100%" y2="100%"><stop offset="20%" stop-color="#001220" stop-opacity="1"></stop><stop offset="80%" stop-color="#001220" stop-opacity="1"></stop></linearGradient></defs><defs><linearGradient id="grad2_0" x1="0%" y1="0%" x2="66.7%" y2="100%"><stop offset="20%" stop-color="#001220" stop-opacity="1"></stop><stop offset="80%" stop-color="#001220" stop-opacity="1"></stop></linearGradient></defs><g transform="translate(900, 0)"><path d="M0 486.7C-48.3 444.8 -96.7 402.9 -160 386.2C-223.2 369.4 -301.4 377.8 -344.2 344.2C-386.9 310.6 -394.2 235 -412.1 170.7C-429.9 106.3 -458.3 53.2 -486.7 0L0 0Z" fill="#3b82f6"></path></g><g transform="translate(0, 600)"><path d="M0 -486.7C65.4 -482.9 130.9 -479.1 186.3 -449.7C241.6 -420.2 287 -365.2 310.4 -310.4C333.9 -255.7 335.5 -201.3 361.2 -149.6C387 -98 436.9 -49 486.7 0L0 0Z" fill="#3b82f6"></path></g></svg>